<?xml version="1.0" standalone="no"?>
<!DOCTYPE svg PUBLIC "-//W3C//DTD SVG 20010904//EN"
 "http://www.w3.org/TR/2001/REC-SVG-20010904/DTD/svg10.dtd">
<svg version="1.0" xmlns="http://www.w3.org/2000/svg"
 width="512.000000pt" height="512.000000pt" viewBox="0 0 512.000000 512.000000"
 preserveAspectRatio="xMidYMid meet">
<metadata>
Created by potrace 1.16, written by Peter Selinger 2001-2019
</metadata>
<g transform="translate(0.000000,512.000000) scale(0.100000,-0.100000)"
fill="#000000" stroke="none">
<path d="M2492 4243 c37 -2 100 -2 140 0 40 1 10 3 -67 3 -77 0 -110 -1 -73
-3z"/>
<path d="M2301 4225 c-35 -8 -66 -17 -70 -21 -3 -3 10 -3 29 2 19 4 64 13 100
20 36 6 52 12 35 12 -16 0 -59 -6 -94 -13z"/>
<path d="M2723 4233 c9 -2 25 -2 35 0 9 3 1 5 -18 5 -19 0 -27 -2 -17 -5z"/>
<path d="M2793 4223 c9 -2 23 -2 30 0 6 3 -1 5 -18 5 -16 0 -22 -2 -12 -5z"/>
<path d="M2848 4213 c7 -3 16 -2 19 1 4 3 -2 6 -13 5 -11 0 -14 -3 -6 -6z"/>
<path d="M2888 4203 c7 -3 16 -2 19 1 4 3 -2 6 -13 5 -11 0 -14 -3 -6 -6z"/>
<path d="M2175 4190 c-13 -5 -14 -9 -5 -9 8 0 24 4 35 9 13 5 14 9 5 9 -8 0
-24 -4 -35 -9z"/>
<path d="M2928 4193 c7 -3 16 -2 19 1 4 3 -2 6 -13 5 -11 0 -14 -3 -6 -6z"/>
<path d="M2375 4140 c-227 -36 -444 -132 -653 -290 -88 -66 -272 -253 -272
-275 0 -29 25 -14 43 25 10 21 54 73 99 115 204 192 466 332 728 391 118 26
376 23 505 -6 156 -34 367 -123 485 -203 94 -64 239 -188 326 -280 126 -131
274 -356 260 -393 -3 -8 -1 -14 4 -14 45 0 -63 200 -191 355 -235 285 -550
484 -889 561 -79 18 -362 27 -445 14z"/>
<path d="M3110 4130 c8 -5 20 -10 25 -10 6 0 3 5 -5 10 -8 5 -19 10 -25 10 -5
0 -3 -5 5 -10z"/>
<path d="M3230 4076 c0 -3 9 -10 20 -16 11 -6 20 -8 20 -6 0 3 -9 10 -20 16
-11 6 -20 8 -20 6z"/>
<path d="M2340 3919 c-166 -35 -357 -122 -519 -237 -72 -52 -241 -209 -241
-225 0 -5 42 30 93 79 271 262 619 406 942 391 201 -10 366 -61 551 -172 59
-36 109 -63 111 -61 7 7 -159 108 -231 141 -163 76 -302 105 -485 104 -85 0
-157 -7 -221 -20z"/>
<path d="M2375 3710 c-336 -53 -617 -244 -788 -538 -59 -101 -43 -95 29 11
169 249 437 420 738 472 404 69 852 -114 1102 -451 106 -142 194 -356 194
-470 0 -43 3 -53 20 -57 18 -5 20 0 20 39 0 108 -57 291 -130 415 -164 278
-439 480 -764 560 -94 23 -326 33 -421 19z"/>
<path d="M3205 3664 c11 -8 52 -38 90 -67 90 -66 191 -169 273 -279 36 -49 67
-88 69 -88 15 0 -88 148 -170 242 -79 91 -228 208 -264 208 -16 -1 -16 -2 2
-16z"/>
<path d="M2473 3603 c9 -2 23 -2 30 0 6 3 -1 5 -18 5 -16 0 -22 -2 -12 -5z"/>
<path d="M2335 3585 c-203 -44 -400 -152 -535 -291 l-65 -67 79 68 c160 137
347 232 561 285 81 21 49 25 -40 5z"/>
<path d="M1495 3403 c-53 -76 -114 -176 -115 -187 0 -5 26 32 58 83 31 51 71
108 88 127 18 19 27 34 20 34 -6 0 -29 -26 -51 -57z"/>
<path d="M2507 3383 c-47 -7 -19 -23 42 -23 170 0 393 -106 506 -240 23 -28
19 -25 -22 12 -95 87 -253 173 -353 193 -28 5 -22 0 28 -24 161 -78 287 -195
357 -332 40 -79 75 -208 75 -278 0 -45 3 -51 20 -51 29 0 76 -26 93 -51 11
-14 23 -20 43 -17 l29 3 -2 110 c-7 291 -149 513 -408 636 -121 57 -279 81
-408 62z m662 -483 c0 -10 -3 -8 -9 5 -12 27 -12 43 0 25 5 -8 9 -22 9 -30z
m8 -42 c-3 -8 -6 -5 -6 6 -1 11 2 17 5 13 3 -3 4 -12 1 -19z m10 -65 c-3 -10
-5 -2 -5 17 0 19 2 27 5 18 2 -10 2 -26 0 -35z"/>
<path d="M2245 3360 c-182 -28 -346 -129 -477 -293 -57 -72 -46 -88 12 -18
144 173 322 261 527 261 125 0 179 -13 310 -75 76 -36 110 -48 104 -37 -27 49
-138 124 -211 143 -27 7 -47 15 -46 18 6 9 -163 10 -219 1z"/>
<path d="M1709 3193 c-13 -16 -12 -17 4 -4 9 7 17 15 17 17 0 8 -8 3 -21 -13z"/>
<path d="M1362 3175 c-17 -37 -14 -45 4 -12 9 16 14 31 11 33 -2 2 -9 -7 -15
-21z"/>
<path d="M3218 3095 c92 -140 111 -201 119 -382 l6 -133 35 0 34 0 -7 77 c-16
174 -88 348 -188 457 l-38 41 39 -60z"/>
<path d="M3852 3037 c90 -279 73 -536 -53 -816 -16 -35 -27 -66 -25 -69 7 -6
60 112 89 198 55 161 72 349 47 510 -11 71 -67 257 -80 265 -4 3 6 -37 22 -88z"/>
<path d="M2340 2813 c0 -130 -3 -239 -5 -242 -3 -2 -5 37 -5 87 0 50 -4 93 -9
96 -11 7 -55 -40 -48 -51 3 -5 2 -40 -2 -79 -8 -68 -8 -69 -10 -16 -1 45 -4
52 -21 52 -18 0 -20 7 -20 79 0 88 -5 111 -26 111 -11 0 -14 -22 -16 -102 l-2
-103 -5 100 -6 100 -34 3 c-19 2 -44 1 -57 -2 l-24 -6 0 -215 0 -214 -47 -3
c-27 -2 110 -3 303 -4 327 -1 405 -6 569 -34 36 -6 16 -7 -75 -4 -354 11 -840
16 -840 7 0 -5 22 -45 49 -88 94 -153 211 -271 385 -389 l69 -48 -91 4 c-99 3
-103 -1 -27 -26 197 -64 500 -61 647 6 l53 25 -155 6 c-345 15 -540 76 -689
214 -66 60 -152 167 -180 223 -12 23 -11 23 11 -3 l23 -29 78 11 c43 6 144 13
225 15 130 4 136 4 52 -4 -182 -16 -319 -33 -332 -41 -10 -6 2 -23 42 -64 56
-58 141 -125 157 -125 5 0 33 19 63 41 117 88 270 145 450 169 82 11 313 14
579 6 76 -2 79 20 4 30 -73 9 -484 11 -578 2 -49 -5 -58 -4 -30 2 22 5 91 14
153 21 126 14 125 13 92 87 l-20 44 66 -4 c63 -3 65 -3 43 15 -11 9 -29 17
-38 17 -13 1 -13 3 4 16 17 13 18 16 5 24 -19 12 -27 12 -50 0 -13 -7 -21 -6
-30 5 -15 18 -66 20 -76 4 -4 -7 1 -16 11 -21 15 -9 12 -13 -21 -33 -35 -21
-36 -23 -16 -30 34 -10 16 -25 -31 -25 l-42 0 38 36 c54 51 47 74 -22 74 -33
0 -84 -37 -77 -55 2 -8 -2 -16 -10 -19 -28 -11 -14 32 21 63 36 31 76 40 104
22 10 -6 23 -3 41 11 29 21 77 17 87 -8 4 -10 17 -1 44 30 21 24 51 47 65 50
26 7 26 8 19 73 -8 80 -13 93 -31 93 -11 0 -14 -17 -14 -70 0 -40 -4 -70 -10
-70 -6 0 -10 38 -10 94 0 52 -5 107 -11 123 l-11 28 -13 -25 c-10 -17 -14 -59
-15 -127 0 -96 -1 -103 -20 -103 -18 0 -20 7 -20 88 -1 53 -6 96 -14 111 -13
24 -14 24 -25 3 -6 -11 -11 -40 -11 -64 0 -24 -4 -48 -10 -54 -5 -5 -10 -27
-11 -49 -2 -52 -8 -75 -20 -75 -5 0 -9 10 -9 23 0 32 -26 102 -32 85 -2 -7 -6
-35 -7 -63 -5 -87 -11 -62 -11 42 0 71 -4 104 -13 112 -23 18 -37 -9 -38 -74
0 -65 -16 -162 -18 -113 0 15 -5 29 -10 32 -5 3 -12 30 -16 61 -7 59 -18 74
-40 55 -11 -9 -15 -33 -15 -81 0 -37 -4 -71 -10 -74 -5 -3 -10 -37 -10 -76 0
-66 -1 -69 -24 -69 l-24 0 -7 215 c-6 167 -10 215 -21 215 -19 0 -44 -29 -44
-51 0 -15 -7 -19 -34 -19 -30 0 -34 -4 -40 -31 -3 -17 -7 -70 -7 -118 -3 -159
-17 -5 -18 192 l-1 177 -44 0 -45 0 -1 -237z m440 -369 c0 -8 -4 -12 -10 -9
-5 3 -10 10 -10 16 0 5 5 9 10 9 6 0 10 -7 10 -16z m190 -14 c0 -5 -4 -10 -10
-10 -5 0 -10 5 -10 10 0 6 5 10 10 10 6 0 10 -4 10 -10z m-253 -136 c-3 -3
-12 -4 -19 -1 -8 3 -5 6 6 6 11 1 17 -2 13 -5z"/>
<path d="M4051 3034 c0 -11 3 -14 6 -6 3 7 2 16 -1 19 -3 4 -6 -2 -5 -13z"/>
<path d="M1537 2988 c-26 -63 -27 -84 -2 -29 14 29 24 56 21 58 -3 3 -11 -10
-19 -29z"/>
<path d="M4061 2994 c0 -11 3 -14 6 -6 3 7 2 16 -1 19 -3 4 -6 -2 -5 -13z"/>
<path d="M1376 2974 c-4 -14 -5 -28 -3 -31 3 -2 8 8 11 23 4 14 5 28 3 31 -3
2 -8 -8 -11 -23z"/>
<path d="M4071 2954 c0 -11 3 -14 6 -6 3 7 2 16 -1 19 -3 4 -6 -2 -5 -13z"/>
<path d="M1350 2873 c-6 -32 -14 -128 -17 -214 -8 -228 19 -371 109 -576 49
-112 45 -78 -6 49 -68 170 -86 257 -93 438 -4 117 -1 179 11 254 18 109 16
139 -4 49z"/>
<path d="M4082 2900 c0 -19 2 -27 5 -17 2 9 2 25 0 35 -3 9 -5 1 -5 -18z"/>
<path d="M2100 2875 c0 -12 12 -15 55 -14 39 1 55 6 55 15 0 10 -15 14 -55 14
-42 0 -55 -3 -55 -15z"/>
<path d="M1624 2788 c-26 -102 -26 -297 0 -391 25 -87 31 -81 10 9 -22 92 -22
286 0 378 9 38 15 71 12 73 -2 2 -12 -29 -22 -69z"/>
<path d="M4093 2820 c0 -25 2 -35 4 -22 2 12 2 32 0 45 -2 12 -4 2 -4 -23z"/>
<path d="M1761 2710 c-18 -83 -14 -256 8 -342 62 -241 228 -441 468 -561 178
-90 400 -110 589 -54 36 10 17 12 -150 12 -172 0 -199 2 -276 24 -176 50 -285
116 -409 247 -57 60 -91 106 -113 154 -18 38 -35 67 -38 65 -3 -2 -6 7 -7 18
-1 12 -13 56 -28 97 -37 103 -52 231 -38 317 14 80 10 96 -6 23z"/>
<path d="M4103 2675 c0 -44 2 -61 4 -37 2 23 2 59 0 80 -2 20 -4 1 -4 -43z"/>
<path d="M1872 2644 c-2 -101 24 -210 74 -305 20 -38 39 -68 41 -65 2 2 -11
35 -31 73 -48 95 -68 172 -76 283 l-7 95 -1 -81z"/>
<path d="M3626 2658 c-3 -13 -8 -50 -11 -83 -40 -369 -256 -668 -596 -823 -46
-21 -93 -42 -103 -46 -10 -3 -17 -9 -14 -11 7 -7 104 28 168 60 252 128 474
394 540 650 21 77 39 275 27 275 -4 0 -9 -10 -11 -22z"/>
<path d="M3091 2602 c-45 -22 -47 -33 -11 -54 17 -10 28 -23 25 -30 -3 -8 6
-25 20 -38 24 -22 27 -23 42 -7 15 15 15 17 -8 26 l-24 10 25 0 c14 0 32 -4
40 -9 10 -6 11 -10 3 -10 -7 0 -15 -11 -19 -25 -5 -19 -11 -24 -25 -20 -11 4
-19 2 -19 -4 0 -6 -11 -7 -28 -2 -27 8 -28 7 -25 -23 10 -78 -2 -72 155 -80
79 -4 156 -9 172 -9 28 -2 31 2 47 53 9 30 19 72 23 93 l7 37 -111 0 c-91 0
-110 -3 -110 -15 0 -8 -4 -15 -10 -15 -5 0 -10 7 -10 15 0 8 -14 24 -31 34
-30 18 -30 19 -9 26 33 10 21 39 -18 43 -17 2 -32 7 -32 13 0 14 -32 11 -69
-9z"/>
<path d="M1450 2583 c1 -66 24 -225 46 -313 24 -96 74 -227 92 -240 4 -3 30
-35 57 -72 27 -37 51 -66 53 -63 3 2 -14 33 -36 67 -96 147 -171 372 -188 561
-4 42 -11 77 -15 77 -5 0 -9 -8 -9 -17z"/>
<path d="M4092 2540 c0 -14 2 -19 5 -12 2 6 2 18 0 25 -3 6 -5 1 -5 -13z"/>
<path d="M3308 2543 c34 -2 90 -2 125 0 34 2 6 3 -63 3 -69 0 -97 -1 -62 -3z"/>
<path d="M3023 2436 c3 -8 11 -33 17 -55 6 -23 15 -41 20 -41 13 0 13 66 0 91
-12 22 -45 27 -37 5z"/>
<path d="M3722 2399 c-18 -75 -67 -193 -118 -282 -53 -91 -53 -117 -1 -30 69
115 116 230 133 326 9 55 -1 45 -14 -14z"/>
<path d="M1212 2405 c0 -16 2 -22 5 -12 2 9 2 23 0 30 -3 6 -5 -1 -5 -18z"/>
<path d="M1220 2357 c-2 -79 108 -374 165 -442 9 -11 1 10 -19 46 -44 83 -91
206 -121 324 -13 50 -24 82 -25 72z"/>
<path d="M2929 2250 c-177 -14 -311 -45 -454 -105 -52 -22 -165 -95 -165 -106
0 -10 84 -49 157 -74 l45 -15 58 53 c152 137 378 210 640 205 l65 -1 -85 -8
c-213 -22 -362 -66 -484 -144 -93 -59 -154 -113 -135 -120 47 -17 138 -26 319
-31 l205 -6 65 49 c36 28 86 73 112 101 53 56 128 167 128 189 0 9 -16 13 -57
13 -32 0 -114 2 -183 4 -69 3 -173 1 -231 -4z"/>
<path d="M1176 2140 c14 -52 95 -213 148 -295 55 -85 212 -257 271 -298 17
-12 -13 24 -65 79 -137 143 -221 260 -296 409 -36 72 -62 119 -58 105z"/>
<path d="M1782 1985 c87 -115 210 -216 343 -282 65 -33 207 -83 234 -83 9 0
-24 14 -73 31 -184 62 -317 149 -462 302 -75 79 -81 84 -42 32z"/>
<path d="M1480 1915 c0 -19 126 -168 206 -245 44 -41 119 -104 168 -139 90
-65 257 -154 311 -166 17 -4 -22 20 -85 52 -232 118 -410 265 -572 473 -15 19
-28 30 -28 25z"/>
<path d="M3764 1798 l-19 -23 23 19 c21 18 27 26 19 26 -2 0 -12 -10 -23 -22z"/>
<path d="M3525 1739 c-55 -56 -185 -153 -277 -207 -43 -24 -78 -46 -78 -49 0
-6 101 47 155 82 96 61 269 215 242 215 -2 0 -21 -18 -42 -41z"/>
<path d="M3724 1748 l-19 -23 23 19 c21 18 27 26 19 26 -2 0 -12 -10 -23 -22z"/>
<path d="M3664 1709 c-47 -54 -195 -175 -288 -236 -200 -132 -236 -156 -236
-160 0 -5 64 29 70 37 3 4 48 33 100 65 137 83 305 217 360 288 25 32 21 36
-6 6z"/>
<path d="M3195 1635 c-57 -36 -196 -92 -284 -116 -47 -13 -128 -24 -211 -28
l-135 -8 106 -1 c121 -2 191 8 304 45 80 26 212 88 250 117 30 23 15 19 -30
-9z"/>
<path d="M2388 1613 c7 -3 16 -2 19 1 4 3 -2 6 -13 5 -11 0 -14 -3 -6 -6z"/>
<path d="M2428 1603 c6 -2 18 -2 25 0 6 3 1 5 -13 5 -14 0 -19 -2 -12 -5z"/>
<path d="M2498 1493 c7 -3 16 -2 19 1 4 3 -2 6 -13 5 -11 0 -14 -3 -6 -6z"/>
<path d="M1630 1482 c0 -13 129 -110 213 -162 124 -75 331 -169 345 -156 2 3
-8 10 -24 16 -156 59 -366 180 -521 303 -9 6 -13 6 -13 -1z"/>
<path d="M2765 1250 l-40 -7 35 0 c19 -1 49 3 65 7 27 7 27 8 5 7 -14 0 -43
-3 -65 -7z"/>
<path d="M2465 1239 c38 -8 271 -11 250 -4 -5 2 -73 5 -150 7 -81 3 -123 1
-100 -3z"/>
<path d="M2274 1109 c-66 -19 -93 -82 -94 -217 0 -89 1 -93 20 -88 11 3 29 9
40 12 14 4 20 14 20 35 l0 29 64 0 c63 0 65 -1 68 -27 2 -20 9 -29 26 -31 22
-3 22 -2 22 111 0 131 -12 158 -78 177 -42 11 -46 11 -88 -1z m84 -75 c15 -11
22 -25 22 -50 l0 -34 -55 0 -55 0 0 32 c0 35 24 68 49 68 9 0 27 -7 39 -16z"/>
<path d="M1890 1078 c-65 -45 -88 -132 -53 -205 9 -19 24 -40 35 -46 21 -14
24 -33 6 -40 -27 -10 49 -29 96 -24 42 4 55 10 88 45 48 52 53 87 7 48 -46
-39 -52 -31 -8 13 34 33 39 45 39 83 0 111 -123 185 -210 126z m128 -63 c49
-57 11 -145 -63 -145 -57 0 -90 64 -61 120 14 30 14 32 -2 26 -11 -4 -8 2 8
15 32 27 86 20 118 -16z"/>
<path d="M2592 1088 c-54 -14 -72 -56 -72 -166 0 -108 10 -120 64 -78 19 14
43 26 54 26 20 0 52 -29 52 -48 0 -21 -36 -32 -68 -21 -31 11 -72 -1 -72 -21
0 -20 47 -40 96 -40 60 0 99 25 109 68 13 61 -26 105 -113 127 -40 10 -47 16
-50 39 -7 55 42 75 76 32 10 -14 31 -28 45 -32 26 -6 27 -5 21 27 -12 65 -76
104 -142 87z"/>
<path d="M2863 1093 c-23 -4 -23 -7 -23 -139 l0 -134 30 0 30 0 0 140 c0 77
-3 139 -7 139 -5 -1 -18 -4 -30 -6z"/>
<path d="M2994 1069 c-13 -15 -19 -35 -18 -66 1 -40 6 -49 44 -82 35 -30 41
-41 35 -60 -4 -13 -22 -29 -41 -37 -41 -17 -43 -28 -8 -51 24 -16 28 -16 59 1
39 21 59 55 59 101 0 45 -18 75 -65 108 -45 31 -43 51 5 42 23 -5 36 -2 46 10
12 15 11 19 -10 36 -34 25 -82 24 -106 -2z"/>
<path d="M3222 1067 c-25 -27 -28 -55 -8 -82 12 -17 15 -17 41 13 16 18 35 32
44 32 9 0 25 7 35 15 20 15 20 15 0 30 -30 23 -87 19 -112 -8z"/>
<path d="M3189 913 c-8 -63 15 -105 80 -145 l34 -21 24 27 c39 46 31 60 -68
115 -58 32 -68 36 -70 24z"/>
</g>
</svg>