<?xml version="1.0" standalone="no"?>
<!DOCTYPE svg PUBLIC "-//W3C//DTD SVG 20010904//EN"
 "http://www.w3.org/TR/2001/REC-SVG-20010904/DTD/svg10.dtd">
<svg version="1.0" xmlns="http://www.w3.org/2000/svg"
 width="512.000000pt" height="512.000000pt" viewBox="0 0 512.000000 512.000000"
 preserveAspectRatio="xMidYMid meet">
<metadata>
Created by potrace 1.16, written by Peter Selinger 2001-2019
</metadata>
<g transform="translate(0.000000,512.000000) scale(0.100000,-0.100000)"
fill="#000000" stroke="none">
<path d="M2350 4066 c-70 -26 -429 -213 -454 -237 -14 -12 250 107 289 131 18
11 75 42 126 70 94 49 105 60 39 36z"/>
<path d="M2635 4054 c-42 -43 -27 -53 420 -279 117 -59 221 -138 374 -282 200
-189 307 -349 273 -409 -7 -13 0 -38 29 -98 62 -129 107 -335 110 -499 l2 -72
7 50 c16 99 11 275 -10 361 -20 85 -71 223 -96 262 -10 14 -14 41 -13 68 3 41
-2 52 -55 125 -42 59 -62 79 -74 74 -24 -9 -235 204 -220 222 18 22 37 15 137
-50 191 -126 277 -216 366 -388 57 -110 113 -279 129 -389 l12 -85 7 51 c7 64
-7 224 -29 307 -39 153 -140 337 -228 414 -52 45 -303 190 -394 227 -91 36
-260 135 -392 228 -120 85 -287 178 -320 178 -10 0 -26 -7 -35 -16z"/>
<path d="M2356 3944 c-87 -16 -187 -54 -454 -174 -110 -49 -192 -80 -213 -80
-46 0 -97 -33 -114 -74 -10 -24 -35 -47 -82 -77 -98 -64 -102 -65 -62 -28 20
19 75 79 121 134 99 117 168 183 258 249 85 63 87 65 12 25 -230 -124 -519
-421 -659 -677 -135 -246 -202 -526 -174 -728 17 -122 83 -376 122 -471 68
-164 220 -393 342 -518 l70 -70 -65 75 c-103 119 -157 195 -187 262 -30 65
-180 542 -208 658 -44 187 10 474 133 700 74 136 200 274 324 356 35 23 43 25
69 15 44 -19 98 7 118 58 14 37 23 42 212 134 308 150 374 173 545 183 120 7
93 -13 -44 -33 -52 -8 -129 -26 -170 -39 -105 -35 -377 -171 -487 -243 -51
-33 -110 -69 -130 -80 -21 -10 -47 -29 -58 -41 -16 -18 -11 -17 25 7 209 140
507 295 656 343 112 36 289 54 304 31 5 -9 13 -10 26 -3 11 6 27 13 37 16 33
10 19 35 -23 42 -28 5 -40 12 -40 23 0 44 -59 51 -204 25z"/>
<path d="M3190 3871 c163 -81 268 -143 335 -195 22 -17 34 -23 26 -13 -22 28
-153 123 -243 177 -76 45 -231 111 -261 110 -7 -1 58 -36 143 -79z"/>
<path d="M2725 3863 c6 -6 28 -16 50 -23 78 -25 242 -108 334 -169 112 -75
196 -145 315 -260 67 -64 79 -73 49 -36 -54 66 -203 209 -278 266 -86 66 -185
122 -306 173 -105 46 -184 69 -164 49z"/>
<path d="M2391 3805 c-103 -23 -250 -75 -278 -99 -30 -26 -26 -63 5 -53 106
35 202 73 225 89 15 11 62 32 105 48 66 25 72 29 42 29 -19 0 -64 -7 -99 -14z"/>
<path d="M2612 3809 c2 -7 46 -24 98 -39 52 -15 108 -32 124 -39 16 -6 36 -9
45 -6 20 6 207 -99 301 -168 51 -38 57 -41 25 -12 -61 55 -192 139 -296 190
-128 61 -308 106 -297 74z"/>
<path d="M1934 3580 c-123 -64 -199 -121 -199 -150 0 -39 26 -34 90 16 33 25
95 67 138 92 42 24 77 48 77 52 0 4 -6 13 -14 19 -11 9 -31 2 -92 -29z"/>
<path d="M2897 3587 c-8 -22 3 -31 101 -82 51 -26 127 -72 168 -102 77 -57
104 -62 104 -20 0 30 -119 118 -239 176 -89 43 -125 50 -134 28z"/>
<path d="M2340 3571 c-134 -30 -240 -77 -368 -163 -82 -55 -200 -163 -190
-173 3 -3 37 22 75 56 123 112 253 185 423 236 74 23 105 26 230 27 80 1 166
-3 193 -7 38 -7 47 -6 47 6 0 24 -28 29 -180 33 -116 3 -162 0 -230 -15z"/>
<path d="M2827 3487 c-7 -18 -5 -20 91 -106 90 -81 126 -127 160 -208 37 -86
51 -273 22 -273 -5 0 -31 18 -59 40 l-51 40 0 73 c-1 107 -21 145 -107 196
-38 23 -74 41 -79 41 -6 0 -46 25 -89 55 -133 92 -163 89 -351 -38 -166 -111
-173 -123 -174 -268 0 -61 -5 -101 -12 -111 -7 -9 -39 -37 -72 -63 -57 -46
-60 -47 -135 -49 -85 -2 -111 -13 -225 -93 -108 -75 -111 -81 -113 -236 -1
-73 1 -147 4 -165 7 -40 47 -81 142 -142 69 -45 70 -45 71 -90 3 -194 155
-432 332 -518 89 -44 195 -66 276 -58 88 9 215 36 227 48 7 7 0 9 -22 5 -82
-16 -164 -18 -233 -8 -174 27 -285 87 -381 208 -77 97 -94 130 -43 82 72 -68
238 -159 288 -159 12 1 -22 23 -78 52 -114 59 -215 147 -251 218 -20 40 -52
169 -43 174 99 46 306 203 334 253 20 35 67 63 106 63 13 0 38 -13 56 -29 31
-29 32 -33 32 -107 0 -85 6 -76 -92 -145 -67 -46 -88 -80 -88 -143 0 -56 30
-93 130 -162 80 -55 152 -69 207 -41 54 28 192 128 208 150 36 52 12 102 -79
166 -94 66 -132 98 -125 105 5 5 86 -49 192 -129 44 -33 47 -38 47 -81 0 -25
-5 -54 -11 -65 -11 -22 -193 -143 -248 -166 -59 -25 -105 -9 -258 89 -34 22
-65 47 -69 56 -5 9 -11 94 -14 187 l-5 170 -25 0 c-43 0 -51 -33 -48 -200 4
-174 11 -195 86 -251 210 -159 260 -185 314 -169 30 10 282 180 332 225 61 54
76 97 76 218 0 99 -1 104 -22 110 -13 3 -25 5 -28 4 -3 -1 -7 -62 -10 -134
l-6 -133 -2 142 c-2 128 -4 143 -21 152 -27 15 -31 5 -24 -67 l6 -65 -84 58
c-118 81 -130 95 -136 147 -5 42 -3 47 33 76 45 38 82 41 130 11 25 -15 34
-28 34 -48 0 -53 39 -94 110 -117 60 -19 68 -25 110 -83 51 -72 96 -101 155
-101 34 0 56 11 130 63 135 95 132 88 127 308 l-2 106 -49 75 c-52 79 -84 108
-190 173 l-65 41 3 97 c3 119 -11 191 -55 285 -42 86 -144 200 -219 243 -56
32 -71 35 -78 16z m-186 -186 c63 -42 91 -70 87 -89 -4 -20 -152 -122 -177
-122 -9 0 -49 21 -87 48 -88 60 -92 78 -28 124 112 78 138 83 205 39z m177
-130 c6 -8 12 -36 12 -63 l0 -48 -116 -77 c-154 -103 -166 -103 -296 -14 -129
89 -138 98 -138 141 0 40 12 59 53 85 l27 17 0 -30 c0 -23 9 -37 38 -60 63
-50 135 -92 157 -92 20 0 139 74 183 113 13 13 22 32 22 50 l0 30 23 -19 c12
-10 28 -25 35 -33z m109 -157 c4 -60 2 -86 -5 -79 -5 6 -12 50 -15 98 -3 55
-1 85 4 80 6 -6 12 -50 16 -99z m107 -170 c59 -42 132 -87 162 -101 30 -13 52
-28 49 -33 -14 -22 -216 -150 -238 -150 -30 0 -265 165 -280 197 -5 12 -7 29
-4 37 11 27 161 125 193 126 6 0 59 -34 118 -76z m-689 20 c58 -39 85 -65 85
-84 0 -10 -43 -46 -111 -90 l-110 -73 -37 21 c-49 27 -78 76 -66 108 10 26
159 142 184 143 9 1 33 -11 55 -25z m264 -246 c28 -25 39 -29 67 -24 19 3 50
9 69 12 28 5 44 0 83 -25 98 -62 120 -103 113 -203 -4 -67 -21 -43 -21 32 0
68 -15 91 -83 130 -75 43 -102 40 -194 -23 l-78 -53 -5 -106 c-3 -59 -8 -110
-12 -114 -5 -4 -8 42 -8 103 l0 110 -57 45 c-98 76 -131 84 -192 47 -49 -30
-49 -16 1 20 45 34 52 34 159 16 29 -6 41 -2 67 20 32 26 32 28 32 115 0 127
14 145 20 27 5 -97 6 -99 39 -129z m-587 120 c26 -18 56 -48 67 -68 11 -20 29
-44 41 -55 17 -15 20 -30 20 -100 0 -99 -14 -123 -99 -164 -31 -15 -74 -39
-96 -54 -58 -39 -99 -36 -174 14 -57 38 -91 72 -91 91 0 5 26 -13 57 -38 104
-85 142 -90 235 -31 29 19 62 37 74 41 11 3 31 18 44 31 20 21 24 36 24 95 1
82 -2 86 -133 174 -62 43 -88 55 -104 50 -20 -6 -21 -5 -7 11 36 43 81 44 142
3z m-164 -58 c15 -16 59 -51 97 -78 64 -43 70 -50 70 -82 0 -30 -6 -39 -54
-72 -74 -52 -109 -51 -190 3 -71 47 -81 62 -81 121 0 46 14 65 85 116 39 28
40 27 73 -8z m1522 -98 c65 -63 56 -94 -47 -163 -86 -59 -125 -68 -174 -44
-41 21 -79 54 -79 69 0 11 236 176 251 176 5 0 26 -17 49 -38z m-221 -309 c25
-13 52 -23 61 -23 17 0 83 32 137 67 26 16 27 16 14 0 -24 -31 -108 -87 -138
-93 -37 -7 -72 11 -133 66 -33 31 -37 37 -15 24 17 -10 50 -29 74 -41z m-1274
-93 c12 0 43 11 69 25 56 30 60 25 9 -10 -50 -33 -101 -33 -153 1 -53 35 -51
39 6 9 26 -14 57 -25 69 -25z m725 -11 c50 -30 120 -89 120 -100 0 -17 -151
-109 -180 -109 -26 0 -109 49 -157 93 -22 19 -22 21 -6 40 26 28 145 97 168
97 11 0 36 -10 55 -21z m740 6 c0 -2 -20 -16 -45 -30 -31 -18 -54 -25 -77 -22
l-33 4 35 1 c19 1 53 13 75 27 43 26 45 27 45 20z m-933 -206 c122 -89 142
-89 258 -7 118 83 115 82 115 64 0 -22 -207 -156 -241 -156 -32 0 -239 132
-239 153 0 18 14 31 18 18 2 -6 42 -38 89 -72z"/>
<path d="M1593 3385 c-72 -65 -169 -189 -238 -302 -21 -35 -40 -63 -42 -63
-17 0 51 156 101 231 33 50 46 89 28 89 -8 0 -89 -131 -125 -205 -37 -75 -112
-262 -135 -337 -48 -154 -50 -346 -6 -539 21 -94 28 -83 9 15 -36 190 -29 363
21 516 24 71 57 130 68 120 2 -3 -4 -41 -15 -85 -31 -132 -41 -223 -26 -248 8
-14 12 -67 13 -147 1 -102 6 -143 27 -220 46 -169 135 -350 220 -447 23 -26
32 -31 43 -22 21 17 18 27 -35 103 -64 93 -92 150 -136 276 -45 131 -88 380
-65 380 14 0 12 87 -1 96 -18 11 -4 146 26 249 60 204 132 325 284 476 59 58
105 111 103 117 -9 28 -51 9 -119 -53z"/>
<path d="M3337 3343 c-15 -14 -6 -51 21 -86 33 -44 65 -48 85 -11 l14 26 22
-36 c28 -45 37 -47 15 -3 -36 68 -132 136 -157 110z"/>
<path d="M3510 3316 c0 -2 8 -10 18 -17 15 -13 16 -12 3 4 -13 16 -21 21 -21
13z"/>
<path d="M3586 3171 c-22 -41 -21 -49 19 -136 81 -178 122 -363 113 -509 -6
-92 -3 -106 21 -106 35 0 41 21 41 139 0 167 -32 301 -111 468 -30 63 -39 93
-37 125 4 54 -23 65 -46 19z"/>
<path d="M1650 3120 c-58 -85 -116 -211 -141 -305 -18 -64 -22 -110 -23 -230
-1 -161 7 -197 43 -188 10 3 22 0 25 -6 10 -16 26 -13 26 4 0 8 -7 15 -15 15
-23 0 -30 44 -29 195 0 113 4 156 22 223 25 93 69 198 119 284 36 61 38 68 23
68 -5 0 -28 -27 -50 -60z"/>
<path d="M3861 2934 c0 -11 3 -14 6 -6 3 7 2 16 -1 19 -3 4 -6 -2 -5 -13z"/>
<path d="M3871 2904 c-1 -6 4 -37 10 -70 6 -32 15 -117 19 -189 l8 -130 -3
145 c-2 85 -10 168 -18 200 -8 30 -15 50 -16 44z"/>
<path d="M4027 2555 c-13 -12 -15 -31 -10 -104 19 -297 -119 -665 -308 -818
-68 -56 -344 -223 -521 -317 -75 -40 -131 -79 -189 -132 -102 -94 -149 -126
-255 -176 -47 -22 -88 -46 -90 -53 -9 -21 15 -55 37 -55 22 0 124 53 199 104
25 17 87 70 137 119 88 85 102 94 263 173 341 166 576 367 686 587 75 149 119
325 129 525 5 79 3 113 -7 132 -16 30 -49 37 -71 15z"/>
<path d="M3766 2379 c-2 -8 -16 -57 -31 -109 -73 -268 -279 -548 -545 -745
-90 -66 -234 -135 -282 -135 -35 0 -39 -2 -36 -22 8 -62 198 7 370 134 102 75
239 211 301 299 69 97 185 321 217 419 38 115 42 146 25 160 -12 10 -16 9 -19
-1z"/>
<path d="M3859 2303 c-45 -124 -76 -182 -107 -202 -42 -28 -63 -74 -51 -114 6
-21 4 -38 -8 -61 -25 -48 -87 -137 -122 -175 -17 -18 -30 -39 -29 -45 3 -11
-68 -80 -157 -153 -84 -68 -253 -173 -379 -235 -67 -33 -110 -56 -96 -53 56
15 281 130 370 190 91 61 246 191 263 221 5 9 16 12 27 9 35 -11 235 240 269
337 10 29 21 62 25 73 5 13 2 11 -8 -5 -26 -43 -30 2 -7 69 33 95 43 231 10
144z"/>
<path d="M3912 2290 c0 -14 2 -19 5 -12 2 6 2 18 0 25 -3 6 -5 1 -5 -13z"/>
<path d="M1420 2248 c0 -2 9 -34 21 -69 30 -93 104 -240 157 -312 66 -90 172
-207 188 -207 28 0 13 27 -47 85 -119 117 -219 267 -280 421 -29 74 -39 94
-39 82z"/>
<path d="M3901 2234 c0 -11 3 -14 6 -6 3 7 2 16 -1 19 -3 4 -6 -2 -5 -13z"/>
<path d="M3891 2194 c0 -11 3 -14 6 -6 3 7 2 16 -1 19 -3 4 -6 -2 -5 -13z"/>
<path d="M3483 2024 c-3 -8 -1 -20 6 -27 14 -14 47 15 37 32 -10 16 -36 13
-43 -5z"/>
<path d="M3330 1857 c-58 -62 -79 -89 -54 -70 22 18 61 56 85 85 102 122 92
117 -31 -15z"/>
<path d="M1639 1693 c119 -143 328 -283 510 -343 146 -47 262 -63 428 -57 108
4 143 2 146 -8 5 -12 -118 -35 -193 -35 -25 0 -31 -3 -23 -11 17 -17 221 7
253 30 26 19 36 57 21 80 -7 11 -20 11 -73 2 -93 -16 -293 -14 -380 4 -220 46
-497 186 -678 343 l-54 47 43 -52z"/>
<path d="M1819 1679 c-16 -9 36 -58 101 -93 39 -21 49 -23 53 -12 8 19 -136
117 -154 105z"/>
<path d="M3170 1619 c-36 -27 -104 -69 -152 -94 -65 -34 -88 -51 -88 -65 0
-30 26 -25 110 21 108 59 220 149 220 176 0 23 -23 13 -90 -38z"/>
<path d="M1440 1649 c0 -20 206 -215 294 -278 171 -124 346 -211 493 -246 82
-19 106 -15 101 17 -3 18 -17 25 -96 44 -194 48 -464 207 -721 428 -56 47 -71
55 -71 35z"/>
<path d="M1745 1515 c11 -9 29 -21 40 -26 l20 -10 -20 16 c-11 9 -29 21 -40
26 l-20 10 20 -16z"/>
<path d="M2110 1470 c124 -58 311 -86 468 -70 95 10 285 51 265 57 -5 2 -47
-6 -94 -17 -176 -44 -403 -37 -573 17 -112 35 -117 36 -66 13z"/>
<path d="M1510 1430 c-29 -29 -26 -74 6 -99 15 -12 32 -21 39 -21 26 0 65 41
65 69 0 60 -69 92 -110 51z"/>
<path d="M3485 1374 c-16 -13 -64 -47 -105 -76 -73 -50 -112 -80 -80 -63 45
25 150 98 185 129 46 40 46 48 0 10z"/>
<path d="M1970 1375 c0 -9 139 -72 175 -80 17 -3 -6 9 -50 28 -44 18 -90 39
-102 46 -13 6 -23 9 -23 6z"/>
<path d="M2190 1280 c8 -5 20 -10 25 -10 6 0 3 5 -5 10 -8 5 -19 10 -25 10 -5
0 -3 -5 5 -10z"/>
<path d="M2730 1149 c-85 -22 -193 -46 -240 -54 l-85 -14 80 5 c177 12 445 66
445 90 0 21 -30 17 -200 -27z"/>
</g>
</svg>